<svg height="64" viewBox="0 0 64 64" width="64" xmlns="http://www.w3.org/2000/svg"><g fill="#d650c7" fill-rule="evenodd"><path d="m32.5535593 61.5c-16.2924002 0-29.50000003-13.2075999-29.50000003-29.5s13.20759983-29.5 29.50000003-29.5c16.2924001 0 29.5 13.2075999 29.5 29.5s-13.2075999 29.5-29.5 29.5zm0-3c14.6355458 0 26.5-11.8644541 26.5-26.5s-11.8644542-26.5-26.5-26.5c-14.6355459 0-26.50000003 11.8644541-26.50000003 26.5s11.86445413 26.5 26.50000003 26.5z" fill-rule="nonzero"/><path d="m43.5975142 44.81c-1.8788006 1.063-3.8694462 1.365-5.9277876.563-1.6266587-.634-2.7794476-1.739-3.0502303-3.571-.2168225-1.471.2648961-2.749 1.2361821-3.834 1.4912673-1.666 3.38086-2.33 5.5539897-2.267.6190721.018 1.214598.16 1.8042372.335.211917.063.3296486.068.3296486-.241-.0117732-3.984-.0107921-7.968-.0019622-11.952.0009811-.263-.0775067-.325-.3188565-.317-1.9798536.066-3.9420474.315-5.8944303.632-3.0296273.492-6.0190297 1.181-8.9691881 2.041-.7583879.221-.7554447.217-.7701611 1.015-.0833932 4.426-.0176598 8.853-.0323762 13.279-.0039244 1.263.0029433 2.526-.0274707 3.789-.0421872 1.781-.8319702 3.184-2.2516175 4.173-2.1947138 1.529-4.5375732 1.876-7.0413326.795-.6455618-.279-1.2499175-.579-1.7012221-1.136-1.0546792-1.301-1.2106736-2.764-.6995221-4.322.3679114-1.123 1.0850932-1.994 2.0269463-2.668 1.954345-1.398 4.0843065-1.735 6.3683001-1.053.2717639.081.3276864.045.3276864-.247-.0068677-7.104-.0049055-14.208-.0029433-21.312 0-.324-.0009811-.647.0372817-.97.0176597-.151.0745633-.218.2119169-.273 3.9391042-1.572 8.0234107-2.569 12.1999403-3.179 2.5125892-.367 5.0457815-.548 7.5779926-.714.5278302-.035 1.0536981-.081 1.5844716-.069.262934.006.3316107.098.3365162.362.08045 4.459.0235464 8.918.050036 14.427v11.678c0 2.283-1.0409439 3.952-2.9560451 5.036z"/></g></svg>