<svg enable-background="new 0 0 512 512" viewBox="0 0 512 512" xmlns="http://www.w3.org/2000/svg"><path d="m458.043 505.825h-403.74c-26.486 0-47.957-21.471-47.957-47.957v-403.736c0-26.486 21.471-47.957 47.957-47.957h403.74c26.486 0 47.957 21.471 47.957 47.957v403.736c0 26.486-21.471 47.957-47.957 47.957z" fill="#445056"/><path d="m110.171 468.114h-55.096c-11.929 0-21.6-9.671-21.6-21.6v-351.25h76.697c11.929 0 21.6 9.671 21.6 21.6v329.651c-.001 11.929-9.671 21.599-21.601 21.599zm137.417-21.6v-329.65c0-11.929-9.671-21.6-21.6-21.6h-55.097c-11.929 0-21.6 9.671-21.6 21.6v329.651c0 11.929 9.671 21.6 21.6 21.6h55.097c11.929-.001 21.6-9.671 21.6-21.601zm115.817 0v-329.65c0-11.929-9.671-21.6-21.6-21.6h-55.097c-11.929 0-21.6 9.671-21.6 21.6v329.651c0 11.929 9.671 21.6 21.6 21.6h55.097c11.929-.001 21.6-9.671 21.6-21.601zm115.816 0v-351.25h-76.697c-11.929 0-21.6 9.671-21.6 21.6v329.651c0 11.929 9.671 21.6 21.6 21.6h55.097c11.93-.001 21.6-9.671 21.6-21.601z" fill="#f4f3ef"/><path d="m152.307 335.633h-24.163c-11.929 0-21.6-9.671-21.6-21.6v-248.271c0-11.929 9.671-21.6 21.6-21.6h24.163c11.929 0 21.6 9.671 21.6 21.6v248.271c0 11.93-9.67 21.6-21.6 21.6zm137.547-21.6v-248.271c0-11.929-9.671-21.6-21.6-21.6h-24.163c-11.929 0-21.6 9.671-21.6 21.6v248.271c0 11.929 9.671 21.6 21.6 21.6h24.163c11.93 0 21.6-9.67 21.6-21.6zm115.947 0v-248.271c0-11.929-9.671-21.6-21.6-21.6h-24.163c-11.929 0-21.6 9.671-21.6 21.6v248.271c0 11.929 9.671 21.6 21.6 21.6h24.163c11.93 0 21.6-9.67 21.6-21.6z" fill="#445056"/></svg>