<svg enable-background="new 0 0 512 512" viewBox="0 0 512 512" xmlns="http://www.w3.org/2000/svg"><path d="m434.191 122.596-6.55 30.784h-343.282l-6.55-30.784h-71.342v297.838h499.065v-297.838zm-362.675 231.924v-141.437h368.969v141.437zm360.651-194.548-1.422-2.23-.534-.986z" fill="#eaeae9"/><path d="m75.828 350.209h360.346v-132.814h-360.346zm329.376-66.406c0 21.761-17.704 39.465-39.465 39.465-21.762 0-39.466-17.704-39.466-39.465 0-21.763 17.704-39.467 39.466-39.467 21.761 0 39.465 17.704 39.465 39.467zm-104.478-24.124v31.564c0 3.269-2.659 5.928-5.928 5.928h-77.596c-3.269 0-5.928-2.659-5.928-5.928v-31.564c0-3.269 2.659-5.928 5.928-5.928h77.596c3.269 0 5.928 2.659 5.928 5.928zm-114.999 24.124c0 21.761-17.704 39.465-39.466 39.465s-39.466-17.704-39.466-39.465c0-21.763 17.704-39.467 39.466-39.467s39.466 17.704 39.466 39.467z" fill="#e84934"/><path d="m443.717 357.754h-375.435v-147.905h375.436v147.904h-.001zm-360.344-15.091h345.255v-117.723h-345.255zm282.366-11.85c-25.922 0-47.011-21.088-47.011-47.01 0-25.923 21.089-47.012 47.011-47.012s47.01 21.089 47.01 47.012c.001 25.922-21.088 47.01-47.01 47.01zm0-78.932c-17.601 0-31.921 14.32-31.921 31.922 0 17.601 14.32 31.92 31.921 31.92s31.92-14.319 31.92-31.92c0-17.602-14.319-31.922-31.92-31.922zm-219.479 78.932c-25.922 0-47.011-21.088-47.011-47.01 0-25.923 21.089-47.012 47.011-47.012s47.011 21.089 47.011 47.012c.001 25.922-21.089 47.01-47.011 47.01zm0-78.932c-17.601 0-31.921 14.32-31.921 31.922 0 17.601 14.32 31.92 31.921 31.92s31.921-14.319 31.921-31.92c0-17.602-14.319-31.922-31.921-31.922zm148.538 52.836h-77.596c-7.43 0-13.474-6.044-13.474-13.474v-31.564c0-7.43 6.044-13.474 13.474-13.474h77.596c7.43 0 13.474 6.044 13.474 13.474v31.564c-.001 7.43-6.044 13.474-13.474 13.474zm-75.979-15.09h74.362v-28.33h-74.362z" fill="#e84934"/><path d="m146.26 256.192c-15.224 0-27.609 12.386-27.609 27.61 0 15.223 12.385 27.608 27.609 27.608s27.609-12.385 27.609-27.608c.001-15.224-12.385-27.61-27.609-27.61z" fill="#415b6b"/><path d="m131.708 283.803c0-12.975 8.998-23.882 21.08-26.823-2.094-.511-4.279-.787-6.529-.787-15.224 0-27.609 12.386-27.609 27.61 0 15.223 12.385 27.608 27.609 27.608 2.25 0 4.433-.277 6.529-.787-12.082-2.942-21.08-13.848-21.08-26.821z" opacity=".1"/><path d="m365.739 256.192c-15.224 0-27.609 12.386-27.609 27.61 0 15.223 12.385 27.608 27.609 27.608 15.223 0 27.608-12.385 27.608-27.608 0-15.224-12.385-27.61-27.608-27.61z" fill="#415b6b"/><path d="m223.135 265.605h65.739v19.707h-65.739z" fill="#57badd"/><path d="m223.135 265.605h12.865v19.707h-12.865z" opacity=".1"/><path d="m424.149 149.068 10.629-49.957h-357.557l10.629 49.957zm-23.385-19.584h-289.527c-3.269 0-5.928-2.66-5.928-5.928 0-3.269 2.659-5.928 5.928-5.928h289.527c3.269 0 5.928 2.659 5.928 5.928.001 3.267-2.658 5.928-5.928 5.928z" fill="#e84934"/><path d="m503.916 116.129h-58.432l4.524-21.265c.508-2.385-.089-4.873-1.624-6.769s-3.844-2.997-6.283-2.997h-372.202c-2.439 0-4.748 1.101-6.283 2.997s-2.132 4.384-1.624 6.769l4.524 21.265h-58.432c-4.466 0-8.084 3.618-8.084 8.084v294.605c0 4.466 3.618 8.084 8.084 8.084h495.832c4.466 0 8.084-3.618 8.084-8.084v-294.605c0-4.465-3.618-8.084-8.084-8.084zm-71.8-14.862-9.712 45.646h-332.808l-9.712-45.646zm63.716 309.467h-479.664v-278.437h53.786l5.188 24.381c.443 2.084 1.666 3.833 3.323 4.974.013.01.026.02.04.029.075.052.155.096.233.144.304.192.618.371.947.521.029.013.06.024.091.037.701.31 1.451.52 2.232.621.343.044.689.074 1.042.074h345.899c.354 0 .7-.03 1.042-.074.981-.127 1.911-.428 2.755-.878.057-.03.116-.056.171-.087.179-.101.351-.21.522-.324.017-.012.036-.022.053-.032.065-.044.124-.094.186-.139 1.58-1.143 2.746-2.846 3.177-4.866l5.188-24.381h53.788v278.437z"/><path d="m187.882 283.803c0-22.952-18.671-41.623-41.622-41.623s-41.623 18.671-41.623 41.623c0 22.949 18.671 41.621 41.622 41.621s41.623-18.672 41.623-41.621zm-67.076 0c0-14.035 11.419-25.454 25.453-25.454s25.453 11.419 25.453 25.454-11.419 25.452-25.453 25.452-25.453-11.418-25.453-25.452z"/><path d="m407.36 283.803c0-22.952-18.671-41.623-41.621-41.623-22.951 0-41.622 18.671-41.622 41.623 0 22.949 18.671 41.621 41.622 41.621 22.95-.001 41.621-18.672 41.621-41.621zm-67.075 0c0-14.035 11.419-25.454 25.453-25.454s25.452 11.419 25.452 25.454-11.418 25.452-25.452 25.452-25.453-11.418-25.453-25.452z"/><path d="m111.237 131.64h289.527c4.466 0 8.084-3.618 8.084-8.084s-3.618-8.084-8.084-8.084h-289.527c-4.466 0-8.084 3.618-8.084 8.084s3.619 8.084 8.084 8.084z"/><path d="m61.815 211.466v144.671c0 4.466 3.618 8.084 8.084 8.084h39.932c4.466 0 8.084-3.618 8.084-8.084s-3.618-8.084-8.084-8.084h-31.847v-128.503h356.034v128.502h-294.011c-4.466 0-8.084 3.618-8.084 8.084s3.618 8.084 8.084 8.084h302.095c4.466 0 8.084-3.618 8.084-8.084v-144.67c0-4.466-3.618-8.084-8.084-8.084h-372.203c-4.465 0-8.084 3.619-8.084 8.084z"/><path d="m294.798 299.328c4.466 0 8.084-3.618 8.084-8.084v-31.564c0-4.466-3.618-8.084-8.084-8.084h-77.596c-4.466 0-8.084 3.618-8.084 8.084v31.564c0 4.466 3.618 8.084 8.084 8.084zm-69.512-31.564h61.427v15.396h-61.427z"/><path d="m44.47 146.912h-5.26c-4.466 0-8.084 3.618-8.084 8.084s3.618 8.084 8.084 8.084h5.26c4.466 0 8.084-3.618 8.084-8.084 0-4.465-3.62-8.084-8.084-8.084z"/><path d="m467.965 163.081h5.26c4.466 0 8.084-3.618 8.084-8.084s-3.618-8.084-8.084-8.084h-5.26c-4.466 0-8.084 3.618-8.084 8.084 0 4.465 3.619 8.084 8.084 8.084z"/><path d="m44.47 380.008h-5.26c-4.466 0-8.084 3.618-8.084 8.084s3.618 8.084 8.084 8.084h5.26c4.466 0 8.084-3.618 8.084-8.084s-3.62-8.084-8.084-8.084z"/><path d="m467.965 396.176h5.26c4.466 0 8.084-3.618 8.084-8.084s-3.618-8.084-8.084-8.084h-5.26c-4.466 0-8.084 3.618-8.084 8.084s3.619 8.084 8.084 8.084z"/><path d="m400.764 380.008h-289.527c-4.466 0-8.084 3.618-8.084 8.084s3.618 8.084 8.084 8.084h289.527c4.466 0 8.084-3.618 8.084-8.084s-3.619-8.084-8.084-8.084z"/><path d="m83.871 89.073h10.765v63.596h-10.765z" opacity=".1" transform="matrix(.9771 -.2128 .2128 .9771 -23.6771 21.7615)"/><path d="m435.889 219.363h-347.494v-.002h-10.765v.002h-3.105v10.765h3.105v120.078h10.765v-120.078h347.494z" opacity=".1"/><path d="m72.639 132.121h-46.098v-2.485h-10.765v284.292h10.765v-271.041h46.098z" opacity=".1"/><path d="m351.188 283.803c0-12.975 8.998-23.882 21.08-26.823-2.094-.511-4.279-.787-6.529-.787-15.224 0-27.609 12.386-27.609 27.61 0 15.223 12.385 27.608 27.609 27.608 2.25 0 4.433-.277 6.529-.787-12.083-2.942-21.08-13.848-21.08-26.821z" opacity=".1"/></svg>