<svg height="48" viewBox="0 0 12.7 12.7" width="48" xmlns="http://www.w3.org/2000/svg" xmlns:xlink="http://www.w3.org/1999/xlink"><linearGradient id="a"><stop offset="0" stop-color="#333"/><stop offset="1"/></linearGradient><linearGradient id="b" gradientTransform="matrix(2.3622 0 0 2.5197 -79.898 -346.48)" gradientUnits="userSpaceOnUse" x1="43.455" x2="43.455" xlink:href="#a" y1="140.15" y2="153.38"/><linearGradient id="c" gradientUnits="userSpaceOnUse" x1="38.9568" x2="38.9568" xlink:href="#a" y1="140.786" y2="151.37"/><linearGradient id="d" gradientUnits="userSpaceOnUse" x1="44.989" x2="44.989" xlink:href="#a" y1="140.786" y2="151.37"/><linearGradient id="e" gradientTransform="matrix(1 0 0 .77778 0 33.203)" gradientUnits="userSpaceOnUse" x1="42.925" x2="42.925" y1="149.41" y2="151.79"><stop offset="0" stop-color="#4d4d4d"/><stop offset="1" stop-color="#1a1a1a"/></linearGradient><linearGradient id="f" gradientUnits="userSpaceOnUse" x1="41.072998" x2="41.072998" y1="146.23544" y2="147.29544"><stop offset="0" stop-color="#520"/><stop offset="1" stop-color="#2b1100"/></linearGradient><linearGradient id="g" gradientTransform="matrix(.16659 0 0 .18676 36.659 144.08)" gradientUnits="userSpaceOnUse" x1="31.836" x2="31.836" y1="33.044" y2="3.2514"><stop offset="0" stop-color="#2ca0b9"/><stop offset="1" stop-color="#87deaa"/></linearGradient><g transform="translate(-35.517 -140.68)"><path d="m7 8c-1.7994 0-3 1.2025-3 3v26c0 1.7975 1.2084 3 3 3h34c1.0883 0 3-1.1998 3-3v-26c0-1.8002-1.2046-3-3-3zm8 12c1.6569 0 3 1.3431 3 3s-1.3431 3-3 3-3-1.3431-3-3 1.3431-3 3-3zm18 0c1.6569 0 3 1.3431 3 3s-1.3431 3-3 3-3-1.3431-3-3 1.3431-3 3-3z" fill="url(#b)" transform="matrix(.26458 0 0 .26458 35.517 140.68)"/><path d="m37.492 145.22.000003 4.4979c0 .26444.26461.52916.52916.52916h7.9375c.26469 0 .52917-.26341.52917-.52916v-4.4979c0-.26424-.26338-.52917-.52917-.52917h-7.9375c-.26491 0-.52917.26357-.52917.52917zm2.1167 1.8521c.43838 0 .79375.35537.79375.79375s-.35537.79375-.79375.79375-.79375-.35537-.79375-.79375.35537-.79375.79375-.79375zm4.7625 0c.43838 0 .79375.35537.79375.79375s-.35537.79375-.79375.79375-.79375-.35537-.79375-.79375.35537-.79375.79375-.79375z" fill="url(#g)" transform="translate(-.1233 -1.0943)"/><path d="m37.369 151.27 1.0583-1.8521h6.8792l1.0583 1.8521z" fill="url(#e)"/><circle cx="39.486" cy="150.21" fill="url(#c)" r=".52917"/><circle cx="44.248" cy="150.21" fill="url(#d)" r=".52917"/><path d="m39.486 145.71c-.58246 0-1.0584.47664-1.0584 1.0576 0 .58236.47503 1.0583 1.0584 1.0583l4.7625-.00001c.58078 0 1.0583-.47548 1.0583-1.0568v-.002c0-.58131-.47749-1.0584-1.0583-1.0583zm0 .26381c.43838 0 .79375.35537.79375.79375s-.35537.79375-.79375.79375-.79375-.35537-.79375-.79375.35537-.79375.79375-.79375zm4.7625 0c.43838 0 .79375.35537.79375.79375s-.35537.79375-.79375.79375-.79375-.35537-.79375-.79375.35537-.79375.79375-.79375z"/><path d="m40.544 146.24h2.6458v1.0583h-2.6458z" fill="#dbe2e3"/><path d="m40.544 146.24v1.0583h.96583a1.5875 1.5875 0 0 0 .0925-.52916 1.5875 1.5875 0 0 0 -.0925-.52917z" fill="url(#f)"/></g></svg>