<svg height="48pt" viewBox="0 0 48 48" width="48pt" xmlns="http://www.w3.org/2000/svg" xmlns:xlink="http://www.w3.org/1999/xlink"><linearGradient id="a" gradientTransform="matrix(47 0 0 40 .5 4)" gradientUnits="userSpaceOnUse" x1="0" x2="1" y1=".5" y2=".5"><stop offset="0" stop-color="#43e97b"/><stop offset=".97826086957" stop-color="#38f9d7"/></linearGradient><path d="m18.253 22.4c.476-.86.747-1.848.747-2.9 0-1.011-.251-1.964-.693-2.8h11.386c-.442.836-.693 1.789-.693 2.8 0 1.052.271 2.04.747 2.9zm-3.253 16.6c0-.828.672-1.5 1.5-1.5s1.5.672 1.5 1.5-.672 1.5-1.5 1.5-1.5-.672-1.5-1.5zm18 0c0-.828.672-1.5 1.5-1.5s1.5.672 1.5 1.5-.672 1.5-1.5 1.5-1.5-.672-1.5-1.5zm-13.75-32h-13.75c-1.104 0-2 .896-2 2v21.5c0 .828-.672 1.5-1.5 1.5-.828 0-1.5-.672-1.5-1.5v-22.5c0-2.208 1.792-4 4-4h23.5c1.104 0 2 .672 2 1.5 0 .828-.896 1.5-2 1.5zm23.25 0c1.104 0 2 .896 2 2v11.5c0 .828.672 1.5 1.5 1.5.828 0 1.5-.672 1.5-1.5v-12.5c0-2.208-1.792-4-4-4h-6.5c-1.104 0-2 .672-2 1.5 0 .828.896 1.5 2 1.5zm-31 12.5c0-.828.672-1.5 1.5-1.5s1.5.672 1.5 1.5-.672 1.5-1.5 1.5-1.5-.672-1.5-1.5zm22 0c0-.828.672-1.5 1.5-1.5s1.5.672 1.5 1.5-.672 1.5-1.5 1.5-1.5-.672-1.5-1.5zm-1.5 0c0-.8.32-1.56.88-2.12s1.32-.88 2.12-.88 1.56.32 2.12.88.88 1.32.88 2.12-.32 1.56-.88 2.12-1.32.88-2.12.88-1.56-.32-2.12-.88-.88-1.32-.88-2.12zm-22 0c0-.8.32-1.56.88-2.12s1.32-.88 2.12-.88 1.56.32 2.12.88.88 1.32.88 2.12-.32 1.56-.88 2.12-1.32.88-2.12.88-1.56-.32-2.12-.88-.88-1.32-.88-2.12zm29.575 21.5-2.505-5h-24.14l-2.505 5zm-32.444 0 .529-1.17 2.963-5.935c.247-.494.895-.895 1.447-.895h25.86c.552 0 1.2.401 1.447.895l2.963 5.935.515 1.139c.935-.168 1.645-.986 1.645-1.969v-10.5c0-.828.672-1.5 1.5-1.5.828 0 1.5.672 1.5 1.5v11.5c0 2.208-1.792 4-4 4h-39c-2.208 0-4-1.792-4-4v-1.5c0-.828.672-1.5 1.5-1.5.828 0 1.5.672 1.5 1.5v.5c0 1.104.896 2 2 2zm6.965-15.6c-.356.066-.722.1-1.096.1-3.311 0-6-2.689-6-6 0-3.311 2.689-6 6-6 .533 0 1.049.07 1.541.2h.459 18 .459c.492-.13 1.008-.2 1.541-.2 3.311 0 6 2.689 6 6s-2.689 6-6 6c-.374 0-.74-.034-1.096-.1h-.904-18zm8.154-7.15h3.5c.69 0 1.25.56 1.25 1.25 0 .69-.56 1.25-1.25 1.25h-3.5c-.69 0-1.25-.56-1.25-1.25 0-.69.56-1.25 1.25-1.25z" fill="url(#a)" fill-rule="evenodd"/></svg>