<svg viewBox="0 0 16 16" xmlns="http://www.w3.org/2000/svg"><path d="m15.6066667 7.32c-.02-.14-.0466667-.22666667-.0466667-.22666667s-.0533333.06666667-.1466667.18666667c-.0266666-.34-.0866666-.68-.18-1.00666667-.12-.41333333-.2733333-.81333333-.4666666-1.19333333-.12-.25333333-.26-.5-.4266667-.72666667-.0866667-.13333333-.16-.23333333-.1733333-.25333333-.2866667-.46666667-.6066667-.74666667-.9866667-1.28-.24-.40666667-.4066667-.86-.4866667-1.32666667-.1066666.28-.1866666.57333334-.24.86666667-.38-.38666667-.72-.66666667-.92-.85333333-1-.93333334-.88-1.41333334-.88-1.41333334s-1.86666663 2.08-1.05999997 4.24666667c.28.73333333.75999997 1.38 1.39333337 1.85333333.78.64 1.62 1.14666667 2.06 2.44666667-.3533334-.68666667-.8933334-1.25333333-1.5533334-1.64666667.2.47333334.3.97333334.2933334 1.48666667 0 1.9466667-1.58 3.5266667-3.53333337 3.5266667-.26 0-.52666666-.0266667-.78-.0866667-.30666666-.06-.6-.16-.87333333-.3-.41333333-.2466667-.77333333-.5733333-1.05333333-.9666667v-.0066666c.03333333.0133333.05333333.02.06.02.14666666.0533333.29333333.0933333.44666666.12.6.1266666 1.22.0533333 1.77333334-.2066667.56-.3133333.9-.54 1.17333333-.4533333.27333333.0866666.48-.17333337.29333333-.4466667-.33333333-.43333333-.88-.64-1.41333333-.54666667-.56.08-1.07333333.47333334-1.8.09333334-.05333333-.02666667-.09333333-.05333334-.14-.08-.04666667-.03333334.16.04.10666667.00666666-.16-.08-.31333334-.16666666-.46-.27333333-.00666667-.00666667.11333333.03333333.1.02666667-.18666667-.12666667-.35333334-.29333334-.48-.48666667-.12666667-.23333333-.14-.52-.03333334-.76666667.07333334-.12666666.17333334-.22.3-.28.09333334.04666667.15333334.08.15333334.08s-.04666667-.08-.06666667-.12c.00666667-.00666666.01333333 0 .02666667-.00666666.08.03333333.26.12666666.36.18666666.06666666.03333334.12.08666667.16666666.14666667 0 0 .03333334-.01333333.00666667-.08666667-.03333333-.08666666-.09333333-.16-.17333333-.20666666h.01333333c.07333333.04.14.08.20666667.13333333.06-.14666667.09333333-.29333333.08666666-.44666667.00666667-.08666666-.00666666-.17333333-.03333333-.24666666-.02666667-.05333334.01333333-.07333334.06-.02-.00666667-.04-.02-.08-.04-.12 0 0 .02666667-.04.04-.04666667.03333333-.03333333.06666667-.06666667.10666667-.08666667.23333333-.14666666.47333333-.27333333.72666666-.37333333.20666667-.08666667.37333334-.16.40666667-.18.05333333-.03333333.1-.06666667.14666667-.10666667.17333333-.14666666.28666666-.34666666.32666666-.56666666.00666667-.03333334.00666667-.06.00666667-.08666667v-.05333333c-.02666667-.11333334-.22-.19333334-1.22666667-.29333334-.35333333-.05333333-.64-.32-.72-.67333333v.00666667c-.01333333.03333333-.02666666.07333333-.04.11333333.01333334-.04.02666667-.07333333.04-.11333333v-.00666667c.19333334-.5.54-.93333333.98666667-1.22666667.02666667-.02-.1.00666667-.07333333-.01333333.08-.04.16666666-.08.26-.11333333.04666666-.01333334-.19333334-.10666667-.40666667-.08666667-.12666667.00666667-.25333333.04-.37333333.08666667.05333333-.04.2-.09333334.16666666-.09333334-.27333333.04666667-.53333333.14666667-.76666666.28666667 0-.02666667.00666666-.04666667.01333333-.06666667-.18666667.08-.35333333.20666667-.47333333.36666667v-.08666667c-.08666667.06666667-.16.14-.23333334.22h-.00666666c-.55333334-.21333333-1.15333334-.26666666-1.74-.14666666l-.00666667-.00666667h.00666667c-.12-.09333333-.22666667-.21333333-.30666667-.34666667l-.00666667.00666667-.01333333-.01333333c-.04-.05333334-.07333333-.12-.11333333-.19333334-.03333334-.04666666-.06-.10666666-.09333334-.16666666 0 0 0-.00666667-.00666666-.00666667-.00666667 0-.02.06-.02666667.04-.1-.26666667-.15333333-.55333333-.14-.83333333h-.00666667c-.16666666.11333333-.29333333.27333333-.35333333.46666666-.03333333.06666667-.05333333.1-.07333333.14v-.02l.02-.1c-.00666667.00666667-.00666667.01333334-.01333334.02-.04666666.05333334-.08666666.11333334-.12.18-.03333333.06-.06.12666667-.08.19333334v-.03333334c0-.02666666.00666667-.06666666 0-.05333333l-.00666666.02c-.21333334.47333333-.35333334.98-.4 1.5-.01333334.09333333-.01333334.18-.01333334.26666667v.01333333c-.15333333.16666667-.28666666.34666667-.40666666.54-.38666667.65333333-.67333334 1.36-.85333334 2.1.12666667-.28.28-.55333333.46-.80666667-.34666666.87333334-.52 1.79333334-.52 2.72666667.06-.27333333.13333334-.54.22-.80666667-.05333333 1.1.16 2.19999997.62 3.20666667.62 1.3866667 1.64666667 2.5533333 2.95333334 3.34.52666666.36 1.10666666.64 1.71333333.8266667.08.0266666.16666667.06.24666667.0866666-.02666667-.0133333-.04666667-.0266666-.07333334-.0333333.72.2133333 1.47333334.3266667 2.22666667.3266667 2.6733333 0 3.5533333-1.02 3.64-1.12.1266667-.12.24-.26.3133333-.4266667.0533334-.02.1-.04.1533334-.0666667l.0333333-.0133333c.04-.02.06-.0266667.06-.0266667.4066667-.1933333.7866667-.4266666 1.1333333-.7066666.52-.3733334.8866667-.92 1.0466667-1.54.1-.2266667.1-.4733334.02-.7066667.04-.0666667.0733333-.1266667.08-.14.5733333-.92.9-1.97333333.9466667-3.06v-.00666667-.08666666c0-.22666667-.02-.46-.06-.68666667z" fill="#fff"/></svg>