<svg viewBox="0 0 72 72" xmlns="http://www.w3.org/2000/svg"><path d="m28.5 19c-2.4 0-5.3333 3.3333-6.5 5l6 2c-.5-1.8333-1.1-5.8.5-7z" fill="#ea5a47"/><path clip-rule="evenodd" d="m48.7832 47.4143c5.596-4.1954 9.2168-10.882 9.2168-18.4143 0-1.6264-.1688-3.2134-.4899-4.7444-6.2454-3.0305-11.1713-8.3547-13.6828-14.87772-5.3591 4.01242-8.8273 10.41222-8.8273 17.62212 0 9.2455 5.7031 17.1589 13.7832 20.4143z" fill="#f1b31c" fill-rule="evenodd"/><circle cx="36" cy="36" fill="#8967aa" r="13" stroke="#8967aa" stroke-width="2"/><path clip-rule="evenodd" d="m39 48.0506c.8012.1956 1.6385.2994 2.5.2994 5.799 0 10.5-4.701 10.5-10.5s-4.701-10.5-10.5-10.5c-.8615 0-1.6988.1038-2.5.2994 4.592 1.1216 8 5.2631 8 10.2006s-3.408 9.079-8 10.2006z" fill="#d22f27" fill-rule="evenodd"/><path d="m39 48.0506-.2373-.9715v1.9429zm13-10.2006h1zm-13-10.2006-.2373-.9714v1.9429zm2.5 19.7006c-.7809 0-1.5386-.094-2.2627-.2709l-.4746 1.9429c.8783.2145 1.7952.328 2.7373.328zm9.5-9.5c0 5.2467-4.2533 9.5-9.5 9.5v2c6.3513 0 11.5-5.1487 11.5-11.5zm-9.5-9.5c5.2467 0 9.5 4.2533 9.5 9.5h2c0-6.3513-5.1487-11.5-11.5-11.5zm-2.2627.2709c.7241-.1769 1.4818-.2709 2.2627-.2709v-2c-.9421 0-1.859.1135-2.7373.328zm-.4746 0c4.1548 1.0147 7.2373 4.7632 7.2373 9.2291h2c0-5.4091-3.7334-9.9436-8.7627-11.172zm7.2373 9.2291c0 4.4659-3.0825 8.2143-7.2373 9.2291l.4746 1.9429c5.0293-1.2284 8.7627-5.763 8.7627-11.172z" fill="#d22f27"/><path d="m27.5 25c-2-2-5.1667-2.1667-6.5-2h-1v10.5h11l5-2c-3.5 0-6-4-8.5-6.5z" fill="#ea5a47"/><path clip-rule="evenodd" d="m11 36.5c0-7.4661 3.2087-14.1829 8.3224-18.8464.2612-.2382.6783-.0327.6776.3209v.0255c0 1.7106.3068 3.3496.8684 4.8649.0313.0846.0341.1771.0076.2634-.5687 1.8491-.876 3.8225-.876 5.8717 0 .2959.0064.5903.0191.8829.0003.0065-.0002.013-.0013.0195l-.0153.0841c-.0013.0072.0039.0139.0112.0143.0062.0003.0111.0053.0114.0115.0011.0228.0023.0456.0035.0684.0028.0517.0494.0897.1007.0825.199-.0279.4055-.0531.6188-.0748.0125-.0013.0231-.0098.0269-.0218.0045-.0136.0175-.0225.0318-.0217l.2574.0143c.4514-.0375.9311-.0592 1.4358-.0592 1.8174 0 3.3652.5393 4.8533 1.0578 1.3778.48 2.7045.9422 4.1467.9422 1.5453 0 2.759-.1382 3.5609-.2811.3508-.0625.6419.3134.434.6028-.4744.6604-1.181 1.407-1.9949 1.6783-.3236.1079-.8566.1692-1.5087.2443-2.3706.2727-6.3149.7265-7.4913 4.2557l-.0367.1592c-.0139.0603-.0137.1231.0011.1833.4219 1.7117 1.1194 3.315 2.0426 4.7601.0202.0316.0449.0602.0733.0848 3.1071 2.6948 7.0844 4.3126 11.4197 4.3126 9.9411 0 18-8.5066 18-19 0-4.1243-1.2449-7.9416-3.3597-11.0562-.271-.3991.2609-.9761.6243-.6588 5.3533 4.6745 8.7354 11.5498 8.7354 19.215 0 14.0833-11.4167 25.5-25.5 25.5s-25.5-11.4167-25.5-25.5z" fill="#ea5a47" fill-rule="evenodd"/><path d="m22.5 30c-2.8 0-4.8333.6667-5.5 1 0 0 2 4 6 4 0 0 1 2 2 6 .5-6.5 7-6.5 8.5-7 1.2-.4 2.1667-1.8333 2.5-2.5-.5.1667-2.1.5-4.5.5-3 0-5.5-2-9-2z" fill="#f1b31c"/><path clip-rule="evenodd" d="m61.8836 34.387c-1.2338 12.933-12.1274 23.0481-25.3836 23.0481s-24.1498-10.1151-25.3836-23.0481c-.077.8069-.1164 1.6248-.1164 2.4519 0 14.0833 11.4167 25.5 25.5 25.5s25.5-11.4167 25.5-25.5c0-.8271-.0394-1.6449-.1164-2.4519z" fill="#b399c8" fill-rule="evenodd"/><g fill="none" stroke="#000" stroke-linecap="round" stroke-width="2"><path d="m52 37.85c0-5.799-4.701-10.5-10.5-10.5-.8615 0-1.6988.1038-2.5.2995 4.592 1.1215 8 5.263 8 10.2005s-3.408 9.0284-8 10.15c-4 .977-11.5-.5-14.5-7" stroke-linejoin="round"/><path d="m55.0537 22.9043c-5.076-3.1398-9.0542-7.8847-11.2264-13.52642-3.6977 2.76862-6.4953 6.67382-7.8744 11.19742m-.9529 10.8149c-2.2403-.4938-4.0684-2.5698-5.7931-4.5284-.4611-.5237-.9148-1.0389-1.3671-1.5134-.4426-1.9943-.7696-5.276.6602-6.3484-1.978 0-4.3184 2.2643-5.7333 3.9936-.6255-.0584-1.2667-.0436-1.8508.0064l.0015-.0047c-.5927-1.5515-.9174-3.2355-.9174-4.9953 0-.3264.0112-.6502.0331-.971-5.5253 4.6776-9.0331 11.6647-9.0331 19.471 0 .0566.0002.113.0006.1695-.0004.0564-.0006.1129-.0006.1694 0 14.0833 11.4167 25.5 25.5 25.5s25.5-11.4167 25.5-25.5c0-.0565-.0002-.113-.0005-.1694.0003-.0565.0005-.1129.0005-.1695 0-7.5522-3.2831-14.3376-8.5-19.0069" stroke-linejoin="round"/><path d="m30 24.4644c1.795-.9355 3.8357-1.4644 6-1.4644 2.3679 0 4.5879.6331 6.5 1.7392"/></g></svg>