<svg height="96" width="96" xmlns="http://www.w3.org/2000/svg" xmlns:xlink="http://www.w3.org/1999/xlink"><linearGradient id="a" gradientUnits="userSpaceOnUse" x1="36.357143" x2="36.357143" y1="6" y2="63.893143"><stop offset="0" stop-color="#fefefe"/><stop offset="1" stop-color="#fefefe" stop-opacity="0"/></linearGradient><radialGradient id="b" cx="48" cy="90.171875" gradientTransform="matrix(1.1573129 0 0 1.0037995 -7.551021 .148425)" gradientUnits="userSpaceOnUse" r="42"><stop offset="0" stop-color="#0a0a0a"/><stop offset="1" stop-color="#505050"/></radialGradient><linearGradient id="c" gradientUnits="userSpaceOnUse" x1="48" x2="48" y1="90" y2="5.987717"><stop offset="0" stop-color="#6b193e"/><stop offset="1" stop-color="#a84e2d"/></linearGradient><linearGradient id="d" gradientTransform="matrix(1.0058652 0 0 .994169 100 0)" gradientUnits="userSpaceOnUse" x1="45.447727" x2="45.447727" y1="92.539597" y2="7.01654"><stop offset="0"/><stop offset="1" stop-opacity=".588235"/></linearGradient><linearGradient id="e" gradientTransform="matrix(1.0238095 0 0 1.0119048 -1.142857 -98.071429)" gradientUnits="userSpaceOnUse" x1="32.251034" x2="32.251034" xlink:href="#d" y1="6.131708" y2="90.238609"/><linearGradient id="f" gradientTransform="translate(0 -97)" gradientUnits="userSpaceOnUse" x1="32.251034" x2="32.251034" xlink:href="#d" y1="6.131708" y2="90.238609"/><linearGradient id="g" gradientUnits="userSpaceOnUse" x1="85.90023723223" x2="6.7411180574" y1="14.3075686706" y2="90.68118734629"><stop offset=".048" stop-color="#fff44f"/><stop offset=".111" stop-color="#ffe847"/><stop offset=".225" stop-color="#ffc830"/><stop offset=".368" stop-color="#ff980e"/><stop offset=".401" stop-color="#ff8b16"/><stop offset=".462" stop-color="#ff672a"/><stop offset=".534" stop-color="#ff3647"/><stop offset=".705" stop-color="#e31587"/></linearGradient><radialGradient id="h" cx="82.2425362346" cy="9.98414231738" gradientUnits="userSpaceOnUse" r="99.40811663637"><stop offset=".129" stop-color="#ffbd4f"/><stop offset=".186" stop-color="#ffac31"/><stop offset=".247" stop-color="#ff9d17"/><stop offset=".283" stop-color="#ff980e"/><stop offset=".403" stop-color="#ff563b"/><stop offset=".467" stop-color="#ff3750"/><stop offset=".71" stop-color="#f5156c"/><stop offset=".782" stop-color="#eb0878"/><stop offset=".86" stop-color="#e50080"/></radialGradient><radialGradient id="i" cx="45.91787710822" cy="50.62511800062" gradientUnits="userSpaceOnUse" r="99.40811663637"><stop offset=".3" stop-color="#960e18"/><stop offset=".351" stop-color="#b11927" stop-opacity=".74"/><stop offset=".435" stop-color="#db293d" stop-opacity=".343"/><stop offset=".497" stop-color="#f5334b" stop-opacity=".094"/><stop offset=".53" stop-color="#ff3750" stop-opacity="0"/></radialGradient><radialGradient id="j" cx="57.90239085716" cy="-12.5753258994" gradientUnits="userSpaceOnUse" r="72.0169674028"><stop offset=".132" stop-color="#fff44f"/><stop offset=".252" stop-color="#ffdc3e"/><stop offset=".506" stop-color="#ff9d12"/><stop offset=".526" stop-color="#ff980e"/></radialGradient><radialGradient id="k" cx="-141.24294599028" cy="71.98088688423" gradientUnits="userSpaceOnUse" r="38.36326796293"><stop offset=".353" stop-color="#3a8ee6"/><stop offset=".472" stop-color="#5c79f0"/><stop offset=".669" stop-color="#9059ff"/><stop offset="1" stop-color="#c139e6"/></radialGradient><radialGradient id="l" cx="-7935.6201" cy="-8491.5459" gradientTransform="matrix(.96927805 -.23434191 .27422989 1.1348132 9892.5297 7821.0021)" gradientUnits="userSpaceOnUse" r="20.396999"><stop offset=".206" stop-color="#6559ff" stop-opacity="0"/><stop offset=".278" stop-color="#574ff3" stop-opacity=".062745"/><stop offset=".747" stop-color="#4016a8" stop-opacity=".45098"/><stop offset=".975" stop-color="#28008b" stop-opacity=".6"/></radialGradient><radialGradient id="m" cx="-133.34821623953" cy="14.69934685792" gradientUnits="userSpaceOnUse" r="27.59849795708"><stop offset="0" stop-color="#ffe226"/><stop offset=".121" stop-color="#ffdb27"/><stop offset=".295" stop-color="#ffc82a"/><stop offset=".502" stop-color="#ffa930"/><stop offset=".732" stop-color="#ff7e37"/><stop offset=".792" stop-color="#ff7139"/></radialGradient><radialGradient id="n" cx="71.42768768218" cy="-15.68120679788" gradientUnits="userSpaceOnUse" r="145.2802734802"><stop offset=".113" stop-color="#fff44f"/><stop offset=".456" stop-color="#ff980e"/><stop offset=".622" stop-color="#ff5634"/><stop offset=".716" stop-color="#ff3647"/><stop offset=".904" stop-color="#e31587"/></radialGradient><radialGradient id="o" cx="-7927.165" cy="-8522.8594" gradientTransform="matrix(.12918614 1.2241925 -.80341477 .08489374 -5764.1281 10420.31)" gradientUnits="userSpaceOnUse" r="86.499001"><stop offset="0" stop-color="#fff44f"/><stop offset=".06" stop-color="#ffe847"/><stop offset=".168" stop-color="#ffc830"/><stop offset=".304" stop-color="#ff980e"/><stop offset=".356" stop-color="#ff8b16"/><stop offset=".455" stop-color="#ff672a"/><stop offset=".57" stop-color="#ff3647"/><stop offset=".737" stop-color="#e31587"/></radialGradient><radialGradient id="p" cx="-133.99819095836" cy="24.92164026505" gradientUnits="userSpaceOnUse" r="73.5135577208"><stop offset=".137" stop-color="#fff44f"/><stop offset=".48" stop-color="#ff980e"/><stop offset=".592" stop-color="#ff5634"/><stop offset=".655" stop-color="#ff3647"/><stop offset=".904" stop-color="#e31587"/></radialGradient><radialGradient id="q" cx="-114.59278587853" cy="29.22405806868" gradientUnits="userSpaceOnUse" r="80.46004635458"><stop offset=".094" stop-color="#fff44f"/><stop offset=".231" stop-color="#ffe141"/><stop offset=".509" stop-color="#ffaf1e"/><stop offset=".626" stop-color="#ff980e"/></radialGradient><linearGradient id="r" gradientUnits="userSpaceOnUse" x1="84.9491864746" x2="17.5927629014" y1="13.8990943962" y2="81.2542876252"><stop offset=".167" stop-color="#fff44f" stop-opacity=".8"/><stop offset=".266" stop-color="#fff44f" stop-opacity=".634"/><stop offset=".489" stop-color="#fff44f" stop-opacity=".217"/><stop offset=".6" stop-color="#fff44f" stop-opacity="0"/></linearGradient><g><g fill="url(#e)"><path d="m12-95.03125c-5.5110903 0-10.03125 4.52016-10.03125 10.03125v71c0 5.5110902 4.5201598 10.03125 10.03125 10.03125h72c5.51109 0 10.03125-4.5201597 10.03125-10.03125v-71c0-5.51109-4.52016-10.03125-10.03125-10.03125z" opacity=".08" transform="scale(1 -1)"/><path d="m12-94.03125c-4.971633 0-9.03125 4.059617-9.03125 9.03125v71c0 4.9716329 4.0596171 9.03125 9.03125 9.03125h72c4.971633 0 9.03125-4.059617 9.03125-9.03125v-71c0-4.971633-4.059617-9.03125-9.03125-9.03125z" opacity=".1" transform="scale(1 -1)"/><path d="m12-93c-4.4091333 0-8 3.590867-8 8v71c0 4.4091333 3.5908667 8 8 8h72c4.409133 0 8-3.5908667 8-8v-71c0-4.409133-3.590867-8-8-8z" opacity=".2" transform="scale(1 -1)"/><rect height="85" opacity=".3" rx="7" transform="scale(1 -1)" width="86" x="5" y="-92"/></g><rect fill="url(#f)" height="84" opacity=".45" rx="6" transform="scale(1 -1)" width="84" x="6" y="-91"/></g><rect fill="url(#c)" height="84" rx="6" width="84" x="6" y="6"/><g transform="matrix(1.2337993 0 0 1.2337993 209.18784 -12.219154)"><g stroke-width="1.230344"><path d="m54.697266 6c-5.733949 6.773458-7.955946 14.862001-8.226563 19.560547a23.852683 23.852683 0 0 0 -13.123047 5.058594 14.255998 14.255998 0 0 0 -1.230468-.933594 22.106825 22.106825 0 0 1 -.132813-11.654297 35.31703 35.31703 0 0 0 -11.478516 8.869141h-.021484c-1.88981-2.395481-1.758669-10.293469-1.650391-11.94336a8.5238245 8.5238245 0 0 0 -1.591796.845703 34.726466 34.726466 0 0 0 -4.660157 3.992188 41.640999 41.640999 0 0 0 -4.457031 5.347656 40.272856 40.272856 0 0 0 -2.125 3.357422v43.625a47.68691 47.68691 0 0 0 16.689453 17.875h50.722656a47.68691 47.68691 0 0 0 16.587891-17.615234v-44.539063c-2.175472-3.502562-4.992984-6.623334-7.353516-7.84375a49.541039 49.541039 0 0 1 4.828125 14.472656l.009766.080079c-5.059942-12.615226-13.423416-18.163987-20.605469-28.554688zm32.791015 28.521484.007813.050782-.007813-.00586zm-50.236328 34.875c.222689.107032.43328.224053.662109.326172l.033204.021485c-.231305-.110731-.464-.227903-.695313-.347657z" fill="url(#g)" transform="matrix(.81050459 0 0 .81050459 -169.54771 9.90368)"/><path d="m82.646484 20.001953a49.541039 49.541039 0 0 1 4.828125 14.472656v.046875l.009766.050782a43.18508 43.18508 0 0 1 -1.484375 32.18164c-5.465197 11.72641-18.693685 23.746523-39.400391 23.16211-17.063371-.483236-32.564024-10.260684-40.599609-24.517578v6.71289a47.68691 47.68691 0 0 0 16.708984 17.888672h50.685547a47.68691 47.68691 0 0 0 16.605469-17.623047v-44.53125c-2.175472-3.502562-4.992984-6.623334-7.353516-7.84375z" fill="url(#h)" transform="matrix(.81050459 0 0 .81050459 -169.54771 9.90368)"/><path d="m82.646484 20.001953a49.541039 49.541039 0 0 1 4.828125 14.472656v.046875l.009766.050782a43.18508 43.18508 0 0 1 -1.484375 32.18164c-5.465197 11.72641-18.693685 23.746523-39.400391 23.16211-17.063371-.483236-32.564024-10.260684-40.599609-24.517578v6.71289a47.68691 47.68691 0 0 0 16.708984 17.888672h50.685547a47.68691 47.68691 0 0 0 16.605469-17.623047v-44.53125c-2.175472-3.502562-4.992984-6.623334-7.353516-7.84375z" fill="url(#i)" transform="matrix(.81050459 0 0 .81050459 -169.54771 9.90368)"/><path d="m54.695312 6c-5.7336 6.773345-7.95399 14.862129-8.224609 19.560547.55611-.038149 1.107358-.085938 1.675781-.085938a24.065532 24.065532 0 0 1 20.892578 12.201172c.103393.072597.199677.146161.296876.21875a25.960262 25.960262 0 0 0 -4.429688-5.777343c-9.274681-9.27622-8.460186-19.527143-6.101562-26.117188z" fill="url(#j)" transform="matrix(.81050459 0 0 .81050459 -169.54771 9.90368)"/></g><path d="m-130.50029 42.840104c-.0639.9613-3.46029 4.276989-4.64795 4.276989-10.99013 0-12.77413 6.64833-12.77413 6.64833.48664 5.598278 4.38767 10.20933 9.10343 12.64848.2154.111691.43379.212403.65217.311126q.56742.251294 1.13482.464695a17.186735 17.186735 0 0 0 5.02888.970275c19.2629.903463 22.99442-23.035311 9.09346-29.981803a13.34253 13.34253 0 0 1 9.31883 2.262645 19.505224 19.505224 0 0 0 -16.93444-9.889228c-.45871 0-.90746.03789-1.35818.0688a19.332709 19.332709 0 0 0 -10.63615 4.099488c.58935.498601 1.25448 1.164729 2.65555 2.545851 2.62264 2.583744 9.34874 5.260228 9.36371 5.574346z" fill="url(#k)" stroke-width=".9972"/><path d="m-130.50029 42.840104c-.0639.9613-3.46029 4.276989-4.64795 4.276989-10.99013 0-12.77413 6.64833-12.77413 6.64833.48664 5.598278 4.38767 10.20933 9.10343 12.64848.2154.111691.43379.212403.65217.311126q.56742.251294 1.13482.464695a17.186735 17.186735 0 0 0 5.02888.970275c19.2629.903463 22.99442-23.035311 9.09346-29.981803a13.34253 13.34253 0 0 1 9.31883 2.262645 19.505224 19.505224 0 0 0 -16.93444-9.889228c-.45871 0-.90746.03789-1.35818.0688a19.332709 19.332709 0 0 0 -10.63615 4.099488c.58935.498601 1.25448 1.164729 2.65555 2.545851 2.62264 2.583744 9.34874 5.260228 9.36371 5.574346z" fill="url(#l)" opacity=".8" stroke-width=".9972"/><path d="m-144.32148 33.434517c.31312.19944.5714.372953.79776.529513a17.917683 17.917683 0 0 1 -.10864-9.446472 28.624615 28.624615 0 0 0 -9.30289 7.189809c.18848-.005 5.79473-.105699 8.61382 1.72715z" fill="url(#m)" stroke-width=".9972"/><path d="m18.853516 14.96875a8.5238245 8.5238245 0 0 0 -1.591797.845703 34.726466 34.726466 0 0 0 -4.66211 3.992188 41.640999 41.640999 0 0 0 -4.474609 5.335937 40.272856 40.272856 0 0 0 -2.125 3.353516v36.896484c8.033982 14.260219 23.539657 24.040133 40.605469 24.523438 20.706693.585642 33.935195-11.4357 39.40039-23.16211a43.18508 43.18508 0 0 0 1.498047-32.136718c1.663854 11.024712-3.945711 21.700554-12.71289 28.923828l-.027344.060546c-17.111624 13.936108-33.488194 8.408794-36.802734 6.152344-.231305-.110732-.462055-.225949-.69336-.345703-9.976859-4.768813-14.098232-13.858836-13.214844-21.654297a12.245616 12.245616 0 0 1 -11.294922-7.105468 17.98517 17.98517 0 0 1 17.529297-.703126 23.745642 23.745642 0 0 0 17.904297.703126c-.018507-.387559-8.316923-3.690362-11.552734-6.876954-1.728627-1.704027-2.548251-2.524222-3.275391-3.140625a14.255998 14.255998 0 0 0 -1.230469-.933593c-.282996-.193165-.601749-.401355-.984374-.652344-3.478192-2.261374-10.396143-2.13701-10.625-2.13086h-.021485c-1.88981-2.395479-1.756703-10.295421-1.648437-11.945312zm68.65039 19.648438c-.002852-.018899-.002964-.037741-.005859-.056641l-.007813-.080078c-.007649-.011067 0 .009228 0 .044922v.046875a43.18508 43.18508 0 0 1 .013672.044922z" fill="url(#n)" stroke-width="1.230344" transform="matrix(.81050459 0 0 .81050459 -169.54771 9.90368)"/><path d="m58.804688 6c-2.358899 6.588773-3.17158 16.84013 6.105468 26.117188a25.960262 25.960262 0 0 1 4.427735 5.783203c.262071.198086.506924.395234.714843.585937 10.811043 9.965788 5.146618 24.05391 4.72461 25.056641 8.782196-7.235654 14.395791-17.937622 12.708984-28.982422-5.062248-12.621004-13.427301-18.169816-20.609375-28.560547z" fill="url(#o)" stroke-width="1.230344" transform="matrix(.81050459 0 0 .81050459 -169.54771 9.90368)"/><path d="m-112.77507 41.092013c-.16852-.154567-.36697-.314119-.57938-.474667-.0787-.05884-.15656-.117671-.24032-.176505a13.34253 13.34253 0 0 0 -9.31883-2.262645c13.90096 6.95048 10.17144 30.885266-9.09347 29.981803a17.186735 17.186735 0 0 1 -5.02887-.970275q-.56741-.212404-1.13481-.464695c-.21839-.09972-.43678-.19944-.65217-.311126l.0269.01695c2.68646 1.833851 15.9552 6.314268 29.82824-4.985998l.0219-.04985c.34603-.807732 4.93713-12.228658-3.82925-20.302984z" fill="url(#p)" stroke-width=".9972"/><path d="m-147.92237 53.765423s1.784-6.64833 12.77413-6.64833c1.18766 0 4.58712-3.315689 4.64795-4.276989a19.245952 19.245952 0 0 1 -14.51126-.570398 14.577063 14.577063 0 0 0 -14.20909.570398 9.9251278 9.9251278 0 0 0 9.1553 5.758827c-.71599 6.319254 2.62462 13.686565 10.71091 17.550714.18049.08675.35002.180492.53549.26326-4.71974-2.438152-8.61679-7.049204-9.10343-12.647482z" fill="url(#q)" stroke-width=".9972"/><path d="m54.650391 6.0566406c-5.698575 6.7619664-7.90982 14.8183724-8.179688 19.5039064.556099-.03815 1.107358-.085938 1.675781-.085938a24.065532 24.065532 0 0 1 20.894532 12.201172 16.462005 16.462005 0 0 0 -11.498047-2.791015c17.150994 8.575496 12.55027 38.106879-11.21875 36.992187a21.204981 21.204981 0 0 1 -6.205078-1.197265c-.466706-.174711-.933677-.366702-1.400391-.574219-.26945-.123035-.538927-.245014-.804688-.382813l.033204.019532c-.231305-.110732-.462047-.22595-.69336-.345704.222689.107033.431314.224052.660156.326172-5.823221-3.009423-10.632005-8.69832-11.232421-15.605468 0 0 2.202092-8.203125 15.761718-8.203126 1.465322 0 5.659324-4.091291 5.734375-5.277343-.018503-.387557-8.316922-3.690362-11.552734-6.876953-1.728652-1.704028-2.550204-2.526177-3.277344-3.142578a14.255998 14.255998 0 0 0 -1.230468-.931641 22.106825 22.106825 0 0 1 -.132813-11.65625 35.31703 35.31703 0 0 0 -11.478516 8.871094h-.021484c-1.889814-2.39548-1.758681-10.293469-1.650391-11.94336a8.5238245 8.5238245 0 0 0 -1.591796.845703 34.726466 34.726466 0 0 0 -4.660157 3.992188 41.640999 41.640999 0 0 0 -4.457031 5.347656 40.272857 40.272857 0 0 0 -2.125 3.359375v43.623047a47.686911 47.686911 0 0 0 16.689453 17.875h50.722656a47.686911 47.686911 0 0 0 16.587891-17.615234v-44.541016c-2.17587-3.501723-4.993447-6.621621-7.353516-7.841797a49.541039 49.541039 0 0 1 4.828125 14.472656l.009766.080079c-5.050459-12.591499-13.391487-18.145027-20.564453-28.4980474z" fill="url(#r)" stroke-width="1.230344" transform="matrix(.81050459 0 0 .81050459 -169.54771 9.90368)"/></g><path d="m12 6c-3.324 0-6 2.676-6 6v2 68 2c0 .334721.04135.6507.09375.96875.0487.295596.09704.596915.1875.875.00988.03038.020892.0636.03125.09375.098865.287771.2348802.547452.375.8125.1445918.273507.3156161.535615.5.78125s.3737765.473472.59375.6875c.439947.428056.94291.814526 1.5 1.09375.278545.139612.5734731.246947.875.34375-.2562018-.100222-.4867109-.236272-.71875-.375-.00741-.0044-.023866.0045-.03125 0-.031933-.0193-.062293-.04251-.09375-.0625-.120395-.0767-.2310226-.163513-.34375-.25-.1061728-.0808-.2132809-.161112-.3125-.25-.1779299-.161433-.3474596-.345388-.5-.53125-.1075789-.130255-.2183939-.265285-.3125-.40625-.025089-.03838-.038446-.08587-.0625-.125-.064763-.103032-.1302275-.204517-.1875-.3125-.1010083-.194706-.2056748-.415701-.28125-.625-.00796-.02181-.023589-.04055-.03125-.0625-.0318251-.09195-.0358045-.186831-.0625-.28125-.0303323-.106618-.0703894-.203031-.09375-.3125-.0728786-.341512-.125-.698205-.125-1.0625v-2-68-2c0-2.781848 2.2181517-5 5-5h2 68 2c2.781848 0 5 2.218152 5 5v2 68 2c0 .364295-.05212.720988-.125 1.0625-.04415.206893-.08838.397658-.15625.59375-.0077.02195-.0233.04069-.03125.0625-.06274.173739-.138383.367449-.21875.53125-.04158.0828-.07904.169954-.125.25-.0546.09721-.126774.18835-.1875.28125-.09411.140965-.204921.275995-.3125.40625-.143174.17445-.303141.346998-.46875.5-.01117.0102-.01998.02115-.03125.03125-.138386.125556-.285091.234436-.4375.34375-.102571.07315-.204318.153364-.3125.21875-.0074.0045-.02384-.0044-.03125 0-.232039.138728-.462548.274778-.71875.375.301527-.0968.596455-.204138.875-.34375.55709-.279224 1.060053-.665694 1.5-1.09375.219973-.214028.409366-.441865.59375-.6875s.355408-.507743.5-.78125c.14012-.265048.276135-.524729.375-.8125.01041-.03078.02133-.06274.03125-.09375.09046-.278085.1388-.579404.1875-.875.0524-.31805.09375-.634029.09375-.96875v-2-68-2c0-3.324-2.676-6-6-6z" fill="url(#a)" opacity=".35"/><path d="m12 90.662913c-3.324 0-6-2.697206-6-6.047546v-2.015848-68.538849-2.015848c0-.337374.04135-.655857.09375-.976427.0487-.297938.09704-.601645.1875-.881934.00988-.03062.020892-.0641.03125-.09449.098865-.2900541.2348802-.5517929.375-.8189412.1445918-.2756743.3156161-.5398593.5-.7874408s.3737765-.4772239.59375-.6929479c.439947-.431448.94291-.8209805 1.5-1.1024171.278545-.1407184.5734731-.2489039.875-.346474-.2562018.1010162-.4867109.2381443-.71875.3779716-.00741.00443-.023866-.00454-.03125 0-.031933.0194529-.062293.0428469-.09375.0629953-.120395.0773077-.2310226.1648087-.34375.251981-.1061728.0814403-.2132809.1623887-.3125.2519811-.1779299.1627122-.3474596.3481249-.5.5354597-.1075789.1312872-.2183939.2673872-.3125.4094693-.025089.0386841-.038446.0865504-.0625.1259905-.064763.1038484-.1302275.2061376-.1875.3149763-.1010083.1962489-.2056748.4189951-.28125.6299527-.00796.0219828-.023589.0408713-.03125.0629952-.0318251.0926787-.0358045.1883115-.0625.2834787-.0303323.1074629-.0703894.2046399-.09375.3149764-.0728786.3442182-.125.7037382-.125 1.0709192v2.015849 68.538848 2.015849c0 2.803892 2.2181517 5.039621 5 5.039621h2 68 2c2.781848 0 5-2.235729 5-5.039621v-2.015849-68.538848-2.015849c0-.367181-.05212-.726701-.125-1.0709192-.04415-.2085325-.08838-.4008092-.15625-.5984551-.0077-.0221239-.0233-.0410124-.03125-.0629952-.06274-.1751158-.138383-.3703608-.21875-.5354598-.04158-.0834561-.07904-.1713007-.125-.251981-.0546-.0979804-.126774-.1898426-.1875-.2834787-.09411-.1420821-.204921-.2781821-.3125-.4094693-.143174-.1758323-.303141-.3497477-.46875-.5039621-.01117-.0102808-.01998-.0213176-.03125-.0314976-.138386-.126551-.285091-.2362937-.4375-.346474-.102571-.07373-.204318-.1545793-.3125-.2204834-.0074-.00454-.02384.00443-.03125 0-.232039-.1398273-.462548-.2769554-.71875-.3779716.301527.097567.596455.2057556.875.346474.55709.2814366 1.060053.6709691 1.5 1.1024171.219973.215724.409366.4453664.59375.6929479s.355408.5117665.5.7874408c.14012.2671483.276135.5288871.375.8189382.01041.03102.02133.06324.03125.09449.09046.280289.1388.583996.1875.881934.0524.320573.09375.639056.09375.97643v2.015848 68.538849 2.015848c0 3.35034-2.676 6.047546-6 6.047546z" fill="url(#b)" opacity=".2"/></svg>