<svg height="48pt" viewBox="0 0 48 48" width="48pt" xmlns="http://www.w3.org/2000/svg" xmlns:xlink="http://www.w3.org/1999/xlink"><linearGradient id="a" gradientUnits="userSpaceOnUse" x1="0" x2="48" y1="24" y2="24" fill="#000000"><stop offset="0" stop-color="#666666" fill="#000000"/><stop offset=".98260869565" stop-color="#222222" fill="#000000"/></linearGradient><path d="m30.22 4.99c1.049.342 2.178-.231 2.52-1.28.342-1.049-.231-2.178-1.28-2.52-2.4-.79-4.91-1.19-7.43-1.19-8.35 0-16.13 4.34-20.49 11.46-2.31 3.76-3.54 8.1-3.54 12.51 0 8.35 4.34 16.13 11.46 20.49 3.76 2.31 8.09 3.54 12.51 3.54 8.35 0 16.13-4.34 20.49-11.46 2.31-3.76 3.54-8.09 3.54-12.51 0-5.64-1.98-11.11-5.59-15.44-.712-.844-1.978-.956-2.825-.25-.847.706-.957 1.97-.245 2.82 3.01 3.61 4.66 8.16 4.66 12.87 0 3.67-1.02 7.28-2.95 10.42-3.64 5.93-10.12 9.55-17.08 9.55-3.68 0-7.28-1.02-10.42-2.95-5.93-3.64-9.55-10.12-9.55-17.08 0-3.67 1.02-7.28 2.95-10.42 3.64-5.93 10.12-9.55 17.08-9.55 2.1 0 4.19.33 6.19.99zm-9.719 29.703c-.59-.192-1.225.13-1.417.72-.193.59.13 1.225.72 1.418 1.35.444 2.762.669 4.179.669 4.697 0 9.073-2.441 11.526-6.446 1.299-2.115 1.991-4.556 1.991-7.037 0-4.697-2.441-9.073-6.446-11.526-2.115-1.299-4.551-1.991-7.037-1.991-4.697 0-9.073 2.441-11.526 6.446-1.299 2.115-1.991 4.551-1.991 7.037 0 3.173 1.114 6.25 3.144 8.685.401.475 1.113.538 1.589.141.477-.398.539-1.108.138-1.586-1.693-2.031-2.621-4.59-2.621-7.24 0-2.064.574-4.095 1.659-5.861 2.048-3.336 5.693-5.372 9.608-5.372 2.07 0 4.095.574 5.861 1.659 3.336 2.048 5.372 5.693 5.372 9.608 0 2.064-.574 4.095-1.659 5.861-2.048 3.336-5.693 5.372-9.608 5.372-1.181 0-2.357-.186-3.482-.557zm10.459-9.948-5.078 2.902-5.078 2.902c-.72.411-1.304.072-1.304-.757v-5.792-5.792c0-.829.584-1.168 1.304-.757l5.078 2.902 5.078 2.902c.72.411.72 1.079 0 1.49z" fill="url(#a)" fill-rule="evenodd"/></svg>