<svg height="48" width="48" xmlns="http://www.w3.org/2000/svg" xmlns:xlink="http://www.w3.org/1999/xlink"><linearGradient id="a" fill="#000000"><stop offset="0" stop-color="#4d2b2c" fill="#000000"/><stop offset="1" stop-color="#d85456" fill="#000000"/></linearGradient><linearGradient id="b" gradientTransform="matrix(1.0012701 0 0 1 -.00508 0)" gradientUnits="userSpaceOnUse" x1="30.573" x2="16.567" xlink:href="#a" y1="42.531" y2="-1.758" fill="#000000"/><linearGradient id="c" gradientTransform="matrix(.70088907 0 0 -.7 8.196443 39.8)" gradientUnits="userSpaceOnUse" x1="30.573" x2="22.038" y1="42.531" y2="4.186" fill="#000000"><stop offset="0" stop-color="#4d2b2c" fill="#000000"/><stop offset="1" stop-color="#b53b3d" fill="#000000"/></linearGradient><linearGradient id="d" gradientUnits="userSpaceOnUse" x1="26.944" x2="23.774" xlink:href="#a" y1="29.012" y2="14.793" fill="#000000"/><linearGradient id="e" gradientUnits="userSpaceOnUse" x1="18.77" x2="37.082" y1="11.731" y2="30.043" fill="#000000"><stop offset="0" fill="#000000"/><stop offset="1" stop-opacity="0" fill="#000000"/></linearGradient><linearGradient id="f" gradientUnits="userSpaceOnUse" x1="27.627" x2="17.833" y1="34.47" y2="10.836" fill="#000000"><stop offset="0" stop-color="#f2b2b3" fill="#000000"/><stop offset="1" stop-color="#f0dbf9" fill="#000000"/></linearGradient><path d="m24 4c-11.079995 0-20 8.92001-20 20s8.920005 20 20 20 20-8.92001 20-20-8.920005-20-20-20z" fill="url(#b)"/><path d="m31.179688 12.667969-16.335938 17.71875.191406 2.501953 11.007813 11.007812c10.113335-1.017022 17.957031-9.506356 17.957031-19.896484 0-.675253-.03488-1.342322-.099609-2l-9.027344-9.027344z" fill="url(#e)" opacity=".4"/><path d="m25 37c-7.755996 0-14-6.244007-14-14s6.244004-14 14-14 14 6.244007 14 14-6.244004 14-14 14z" fill="url(#c)"/><path d="m24.000827 13c-6.075284 0-11.000827 4.923801-11.000827 10.99917 0 6.075285 4.925442 11.00083 11.000827 11.00083 6.075267 0 10.999173-4.925443 10.999173-11.00083 0-6.075268-4.923804-10.99917-10.999173-10.99917z" fill="url(#f)" fill-rule="evenodd"/><path d="m21 18 10 6.077002-9.965428 5.922998-.03456-12z" fill="url(#d)" fill-rule="evenodd"/><path d="m4.0117188 23.5c-.0040718.166859-.0117188.332126-.0117188.5 0 11.07999 8.920005 20 20 20s20-8.92001 20-20c0-.167874-.007647-.333141-.011719-.5-.264672 10.846128-9.07616 19.5-19.988281 19.5s-19.7236095-8.653872-19.9882812-19.5z" opacity=".15" fill="#000000"/></svg>