<svg height="48pt" viewBox="0 0 48 48" width="48pt" xmlns="http://www.w3.org/2000/svg" xmlns:xlink="http://www.w3.org/1999/xlink"><linearGradient id="a"><stop offset=".28" stop-color="#00cdd7"/><stop offset=".94" stop-color="#2086d7"/></linearGradient><linearGradient id="b" gradientTransform="matrix(45.5 0 0 37.5 1.25 5.25)" gradientUnits="userSpaceOnUse" x1=".417031" x2=".679538" xlink:href="#a" y1=".019249" y2=".964132"/><linearGradient id="c" gradientTransform="matrix(26 0 0 37.5 11.5 5.25)" gradientUnits="userSpaceOnUse" x1=".417031" x2=".679538" xlink:href="#a" y1=".019249" y2=".964132"/><g fill-rule="evenodd"><path d="m4.75 31v-6h7.25v-3h-7.25v-6h7.25v-3h-7.25v-2.25c0-1.104.896-2 2-2h20.25c.966 0 1.75-.784 1.75-1.75 0-.966-.784-1.75-1.75-1.75h-21.75c-2.208 0-4 1.792-4 4v29.5c0 2.208 1.792 4 4 4h5.75.5l1.25-3.5h-1.75-4.25c-1.104 0-2-.896-2-2v-3.25h7.25v-3zm38.5 3v3.25c0 1.104-.896 2-2 2h-20.25c-.966 0-1.75.784-1.75 1.75 0 .966.784 1.75 1.75 1.75h21.75c2.208 0 4-1.792 4-4v-29.5c0-2.208-1.792-4-4-4h-5.25l-2.25 3.5h1.75 4.25c1.104 0 2 .896 2 2v2.25h-7.25v3h7.25v6h-7.25v3h7.25v6h-7.25v3zm-15.95-10-7.8 5.2v-10.4zm5.4 0-16.2 10.8v-21.6z" fill="url(#b)"/><path d="m14.5 41c0 .966-1.344 1.75-3 1.75v-1.75-32-1.5h3v1.5zm23-2v1.5h-3v-1.5-32c0-.966 1.344-1.75 3-1.75v1.75z" fill="url(#c)"/></g></svg>