<svg viewBox="0 0 72 72" xmlns="http://www.w3.org/2000/svg"><path d="m36.6352 54.5916 21.8348-5.6686-.152-28.3743-21.7013 4.55-21.85-5.0948v24.9061a5.0437 5.0437 0 0 0 3.637 4.9572l18.1976 4.7244v-25.358" fill="#92d3f5"/><path d="m36.6352 54.5916 20.1764-5.2381a2.2146 2.2146 0 0 0 1.6584-2.1435v-24.4157a2.2148 2.2148 0 0 0 -2.7176-2.1569l-19.1357 4.4613" fill="#61b2e4"/><path d="m36.6182 43.7113-.26 10.4178-5.3535-.7313-15.9287-20.3604v-12.4887l2.955.2794z" fill="#fff"/><path d="m14.767 20.004 22.041-5.695 21.141 6.27" fill="#92d3f5"/><path d="m57.398 20.254-20.947 5.114-21.706-5.499" fill="#92d3f5"/><g fill="none" stroke="#000" stroke-linecap="round" stroke-linejoin="round" stroke-width="2.069"><path d="m36.6013 29.2336v22.644a2.0994 2.0994 0 0 1 -2.627 2.032l-1.1441-.297-.1645-.0427-14.5147-3.7683a4.6932 4.6932 0 0 1 -3.3843-4.6127v-22.54a2.0993 2.0993 0 0 1 2.5761-2.0445l17.7214 4.1321a6.8379 6.8379 0 0 0 3.105 0l17.7245-4.1322a2.0994 2.0994 0 0 1 2.5763 2.0447v24.65a2.1 2.1 0 0 1 -1.5719 2.032l-19.5738 5.0817a2.9706 2.9706 0 0 1 -1.3844.0261l-1.9656-.5288"/><path d="m14.7451 24.4107.0168-3.4268a1.2719 1.2719 0 0 1 .9537-1.2252l19.1144-4.9387a7.0928 7.0928 0 0 1 3.926.1089l18.5261 5.0135a1.6083 1.6083 0 0 1 1.1879 1.5528v2.6654"/></g></svg>