<svg enable-background="new 0 0 512.001 512.001" viewBox="0 0 512.001 512.001" xmlns="http://www.w3.org/2000/svg"><path d="m152.629 10.58-142.049 141.751v349.091l142.049-141.752z" fill="#f95428"/><path d="m503.834 10.58-142.048 141.751v349.091l142.048-141.752z" fill="#f95428"/><path d="m12.993 152.338h348.797v348.797h-348.797z" fill="#f95428"/><path d="m152.635 10.58h348.797v348.797h-348.797z" fill="#e54728"/><g fill="#666"><path d="m152.628 55.011c-5.844 0-10.579-4.737-10.579-10.579v-33.852c0-5.842 4.735-10.579 10.579-10.579s10.579 4.737 10.579 10.579v33.853c0 5.842-4.735 10.578-10.579 10.578z"/><path d="m152.628 285.235c-5.844 0-10.579-4.737-10.579-10.579v-64.248c0-5.842 4.735-10.579 10.579-10.579s10.579 4.737 10.579 10.579v64.248c0 5.842-4.735 10.579-10.579 10.579zm0-115.113c-5.844 0-10.579-4.737-10.579-10.579v-64.247c0-5.842 4.735-10.579 10.579-10.579s10.579 4.737 10.579 10.579v64.248c0 5.842-4.735 10.578-10.579 10.578z"/><path d="m186.481 369.951h-33.853c-5.844 0-10.579-4.737-10.579-10.579v-33.853c0-5.842 4.735-10.579 10.579-10.579s10.579 4.737 10.579 10.579v23.274h23.274c5.844 0 10.579 4.737 10.579 10.579s-4.735 10.579-10.579 10.579z"/><path d="m416.705 369.951h-64.25c-5.844 0-10.579-4.737-10.579-10.579s4.735-10.579 10.579-10.579h64.25c5.844 0 10.579 4.737 10.579 10.579s-4.735 10.579-10.579 10.579zm-115.112 0h-64.248c-5.844 0-10.579-4.737-10.579-10.579s4.735-10.579 10.579-10.579h64.248c5.844 0 10.579 4.737 10.579 10.579s-4.737 10.579-10.579 10.579z"/><path d="m501.422 369.951h-33.853c-5.844 0-10.579-4.737-10.579-10.579s4.735-10.579 10.579-10.579h33.853c5.844 0 10.579 4.737 10.579 10.579s-4.737 10.579-10.579 10.579z"/><path d="m10.58 512.001c-2.707 0-5.415-1.033-7.481-3.099-4.131-4.131-4.131-10.83 0-14.96l23.938-23.938c4.133-4.131 10.83-4.131 14.962 0 4.131 4.131 4.131 10.83 0 14.96l-23.939 23.938c-2.065 2.065-4.773 3.099-7.48 3.099z"/><path d="m82.907 439.674c-2.707 0-5.415-1.033-7.481-3.099-4.131-4.131-4.131-10.83 0-14.96l23.938-23.938c4.133-4.131 10.83-4.131 14.962 0 4.131 4.131 4.131 10.83 0 14.96l-23.938 23.938c-2.066 2.065-4.775 3.099-7.481 3.099z"/></g><path d="m501.422.001h-348.794c-2.806 0-5.495 1.114-7.481 3.099l-142.047 142.047c-1.914 1.916-3.099 4.56-3.099 7.481v348.793c0 5.842 4.735 10.579 10.579 10.579h348.791c2.921 0 5.566-1.185 7.481-3.099l142.049-142.049c1.983-1.983 3.098-4.674 3.098-7.48v-348.792c.002-5.843-4.735-10.579-10.577-10.579zm-344.412 21.158h318.871l-120.891 120.891h-318.869zm191.784 469.682h-327.635v-327.633h327.633v327.633zm21.158-14.961v-318.869l120.891-120.891v318.87z"/></svg>