<svg viewBox="0 0 22 22" xmlns="http://www.w3.org/2000/svg"><g fill="#eff0f1"><path d="m7 10c-2.7614237 0-5 2.238572-5 5 0 2.761427 2.2385763 5 5 5 2.7614233 0 5-2.238573 5-5 0-2.761428-2.2385767-5-5-5zm2.0058594 1.562498c.00317.04833-.040268.04562-.052734.07813.0075.02083.049434.02773.052734.05273-.00408.02667-.062751.02328-.052734.05078.045008.035.088363.0083.1308594 0 .093326-.01167.1768775-.0033.234375-.05078.3386027-.154867 0 .04427 0 .07811-.019158.01333-.058125.07813-.078125.07813-.024158 0-.060625-.03234-.078125-.02734-.025025.0083-.024451.04273-.052734.05273-.054992.02-.1624781-.02977-.1816406.05273.023333.0475.1145875.02412.15625.05078.02585.01667.071458.07713.078125.105468.00667.02333.00999.13125 0 .15625-.02585.06667-.1069371.05161-.1835938.05078h-.050781c-.1291534-.0083-.2541675-.06516-.3125.02734.00413.07083.015858.119974 0 .181641-.011642.045-.080623.09203-.078125.130859.0009166.02.045785.04979.050781.07813.00321.015-.00672.03662 0 .05078.021679.04083.067139-.0083.1054688 0 .036667.0083.078125.06447.078125.105468 0 .02917-.00897.07527-.027344.103516-.036667.055-.1037525.04813-.15625.07813-.043312.025-.05229.08786-.078125.130859-.0275.04667-.061629.06216-.050781.128907-.037492.07417-.07876.120416-.15625.15625-.022504.01-.057294.01234-.078125.02734-.016683.01167-.029383.05146-.052734.07813-.02915.0325-.062294.05313-.078125.07813-.011688.01917-.012924.05146-.025391.07813-.018333.035-.054797.04296-.078125.07813-.010817.01667-.015702.05646-.027344.07813-.026675.04833-.055782.08641-.050781.128907.00412.04.048283.04146.050781.07813.00229.02-.026216.03023-.025391.05273.0009167.03167.022916.05312.025391.07813.00583.06167-.03914.08869-.050781.130859-.00583.02.005.03412 0 .05078-.00999.03083-.0519.06863-.052734.105468-.0009167.02583.050259.04146.052734.07813.00183.02417-.03234.05479-.027344.07813.00917.045.095866.09391.1308594.128907.047498.0475.1100327.08086.1308594.130859.017508.0425.018309.1245.050781.15625.024154.02333.074641.02773.1054688.05273.02915.0225.047294.02578.078125.05078.050829.04.1261996.136692.2070312.130859.042488-.0083.083363-.0444.1308594-.05273.049167-.0083.106255-.02956.15625-.02539.038317.0083.090862.02789.1308594.02539.041658-.0083.081415-.0046.1289062-.02539.0825-.03583.2198571-.09538.3398438-.07813.091658.01333.092087.115417.15625.15625.073325.0083.1233131-.01417.1816406 0 .044183.01083.09935.06885.1035156.103516.00417.03583-.04579.0828-.050781.105468-.011642.04833.00833.09807 0 .128907-.00667.02417-.028169.05396-.027344.07813 0 .02167.030218.07697.052734.105468.0275.035.070182.06585.1035156.103516.060825.07.088362.141875.1308594.234375.01082.02333-.01.04812 0 .07813-.01833.139917-.06459.235708-.15625.390625-.043317.05-.1043498.09383-.1035156.15625-.00317.15.084792.245625.078125.390625-.014983.194917.015033.208417 0 .3125.065834.03333.019158.139734 0 .208984-.3325002 1.150859-3.3031937 1.620522-4.324219.962873.014988-.02.1000319-.01956.1308594-.02539.044183-.0083.1058619-.01568.1308594-.02734.0275-.0175.055782-.07757.050781-.128907-.00229-.02417-.031669-.03107-.050781-.05273-.015813-.01833.010817-.03523 0-.05273-.019983-.02917-.069793-.03562-.078125-.07813.059996-.01167.1477179.05151.234375.02734.040837-.01167.1097387-.09244.1289062-.130859.00583-.01167-.00665-.03773 0-.05273.00752-.015.024823-.04245.027344-.05078.00582-.0225-.005-.01234 0-.02734.014987-.0425.053122-.07327.078125-.103516.019158-.02333.060602-.05396.078125-.07813.019983-.02583.012099-.0294.025391-.05273.012512-.07583-.043724-.140448-.025391-.207032.019983-.075.1345412-.122083.2070312-.15625.024979-.01167.057293-.01984.078125-.02734.049995-.0175.1095871-.03411.15625-.05078.078329-.02833.092524-.08467.1308594-.15625.018333-.03333.049389-.08105.052734-.105468.00321-.02167-.00413-.02495 0-.05078.00412-.02417-.00665-.04979 0-.07813.009167-.035854.025391-.116354.025391-.156271 0-.03333-.024566-.04813-.025391-.07813-.00583-.108333.038135-.09708.078125-.15625.019983-.02917.036665-.08455.050781-.105468.067494-.1.1919263-.13349.1835938-.285157-.00321-.05-.041477-.16776-.078125-.183593-.020854-.0092-.047293-.01456-.078125-.02539-.098326-.03667-.1846215-.147917-.2871094-.15625h-.052734c-.040012 0-.083912-.01956-.1289062-.02539-.028325-.0083-.088803.0083-.1054688 0-.02585-.0125-.029973-.06396-.050781-.07813-.016683-.01167-.052297-.01818-.078125-.02734-.040838-.015-.057972-.04745-.1054688-.05078-.014987 0-.03413.0083-.050781 0-.02585-.0083-.053962-.01234-.078125-.02734-.029975-.01833-.065627-.02495-.078125-.05078.0275-.08992-.059792-.10375-.078125-.15625-.00834-.02417.00834-.0838 0-.105468-.010817-.03083-.043957-.05229-.078125-.07813-.059996-.04667-.097766-.06738-.1835938-.07813-.038317-.0083-.083077.0083-.1289062 0-.048327-.0083-.1195879-.03646-.15625-.07813-.0350169-.040821-.0472969-.084253-.0781252-.103503-.02915-.01833-.058128-.03357-.078125-.05273-.00917-.0083-.019002-.0062-.027344-.02539-.014987-.03083-.043724-.04063-.025391-.07813-.033321-.01667-.016907.03122-.052734.02539-.032496-.04583-.055582-.09146-.1289062-.07813-.033321.0083-.066305.07729-.1054688.07813-.032496 0-.061019-.07146-.1035156-.07813-.032496-.0083-.081016.03151-.1035156.02734-.035842-.0083-.045648-.03107-.078125-.05273-.024154-.01583-.064792-.05357-.078125-.05273-.041663 0-.073367.08307-.1308594.05273-.028325-.03583.058739-.04479.025391-.07813-.024979-.02417-.03077.01372-.050781.02539-.023329.015-.052297.01818-.078125.02734-.057498.02167-.1112554.02662-.15625.05078-.041663.02167-.053961.03537-.078125.07813-.019158.035-.048961.103802-.078125.105468-.035017 0-.046459-.03857-.078125-.05273-.095824-.04167-.1552163.02372-.234375.02539-.073328 0-.1869259-.112474-.1835938-.181641.00229-.0425.022348-.10375.027344-.15625.00413-.04167.050002-.09286.050781-.130859.0009167-.05167-.095576-.07221-.1289062-.07813-.078329-.01417-.1725592.035-.2617188 0-.016683-.02833.017352-.04979.027344-.07813.00582-.015-.00582-.03328 0-.05078.00999-.02667.065631-.04979.078125-.07813.00917-.02167-.00917-.05062 0-.07813.010817-.03.04826-.05646.050781-.07813.00321-.02833-.028323-.05979-.050781-.07813-.069163.0083-.1162513.0054-.15625.02539-.089989.04083-.065422.153307-.15625.181641-.1762523-.386312.2081841-.634705.3906258-.884766.064997.0092.097088-.0083.15625 0 .040013.0083.097245.0494.1289062.05273.026675 0 .027733-.03068.052734-.02734.024979.0083.073958.04812.078125.07813.00413.0375-.036253.08953-.025391.130859.039188.04.125811.05479.1816406.07813.036667-.03083.00582-.08753 0-.130859-.0009167-.01917.00229-.06063 0-.07813-.00413-.03-.025391-.05229-.025391-.07813 0-.119167.1016477-.160448.1816406-.207032.034146-.02.073518-.06312.1035156-.07813.042488-.02083.070471-.0073.1054688-.02734.063323-.03583.1070846-.08832.15625-.128907.022504-.05417-.00229-.13026 0-.183593.022504-.01417.053985 0 .078125 0 .038317-.0083.056455-.05646.078125-.07813.012512-.0125.035766-.01289.050781-.02539.038317-.03.044781-.06479.078125-.07813.011687-.0083.034379-.01956.052734-.02539.025025-.0083.063522-.01234.1035156-.02734.02585-.0092.095468-.01456.1054688-.02539.012512-.0125-.00321-.05896 0-.07813.019983-.09408.1502158-.09911.234375-.130859.058327-.02167.1166444-.08979.1816406-.07813-.012512.045-.063568.05122-.052734.105468.014163.07583.1041936-.01651.1308594-.02734.050829-.02167.1423198-.05313.2089844-.07813.058327-.02083.1585064-.03635.1035156-.103516-.045833-.0083-.063521.03607-.1035156.05273-.0275.0083-.029419-.02484-.052734-.02734-.022504 0-.030212.03151-.052734.02734-.022504-.0083-.04745-.05062-.050781-.07813-.00917-.07.0498-.07928.078125-.130859-.019158-.06333-.1029229-.02773-.15625-.05273.00582-.0375.033964-.06979.078125-.07813.035842-.0083.1345846.0082.15625.02734.012512.01083-.019117.03328 0 .05078.021679.01917.049795.0083.078125 0 .00999-.0475-.061067-.01995-.052734-.05078.056659-.03667.1652125-.01818.234375-.02734.040012-.0083.095027-.03162.1308594-.05078.033321-.01917.043126-.05901.078125-.02734.00999.03417-.00823.05979-.027344.07813-.064162.05667-.1316456.117843-.1816406.183593.030846.03.079196.01956.1308594.02539.019983.0083.057289-.0042.078125 0 .025025.0083.058123-.0083.078125 0 .035017.0083.043131.07813.078125.07813.056663 0 .032519-.06585 0-.103516.00999-.03917.039599-.0778.025391-.105468-.02585-.05167-.125859.01672-.1308594-.05078-.00321-.04167.037729-.04646.052734-.07813-.00665-.08.061067-.08375.052734-.15625-.00413-.03-.031894-.0244-.052734-.05273-.010817-.015-.012924-.06646-.025391-.07813-.043312-.03667-.125859-.008-.1308594-.07813-.00229-.04167.00582-.08619 0-.130859 1.0903992-.461949 2.2060934.0588 2.7871086.365293zm-.2089844-.181639c-.015358.0083-.011874.01706-.025391.02539-.031675.01917-.05395.04357-.078125.05273-.034142.0125-.073122.01995-.078125.05078-.00413.02583.026261.02857.025391.05273-.012512.03083-.018699.04063-.025391.07813.042488.06917.1291473-.01456.1816406-.02539.023333-.0083.040234-.0073.052734-.02734.014158-.0225.014607-.04629.025391-.07813.1449319-.09717-.056353-.09298-.078125-.1289zm-4.4003906.675782c.019983 0 .027434.05107.050781.05273.022504 0 .039379-.02872.052734-.02539.035017.0092.058739.07752.025391.103516-.0275.0083-.030812-.02872-.050781-.02539-.056663.01-.088363.13224-.1308594.128907-.040012-.0083-.066242-.09974-.025391-.128907.0009166-.025-.0017-.0269 0-.05273.012512-.015.044777-.05523.078125-.05274zm5.4414062.15625c.2277494.07851.3293294.348535.4687584.496094.298491-.25608.233266.397621.28712.572264-.04414.0083-.09543-.03857-.15625-.05273-.02498-.0083-.05813.0083-.07813 0-.04583-.015-.03896-.07577-.07813-.103516-.02251-.01583-.09502-.04857-.130859-.05273-.02251 0-.02747.0083-.05078 0-.02832-.0083-.08213.01167-.1054684 0-.022508-.01417-.072283-.05896-.078125-.07813-.00917-.03083.076458-.05204.078125-.07813.00183-.02-.021224-.04729-.025391-.07813-.00317-.01833.00408-.03828 0-.05078-.00583-.02167-.043967-.02651-.078125-.02734h-.078125c-.036667 0-.1104217-.0033-.15625 0-.0275 0-.052292-.0025-.078125 0-.072492.0083-.1249765-.0083-.1816406 0-.040842 0-.11792.03523-.15625.05273-.019158.0092-.027726.01289-.052734.02539-.011642.0083-.037701.02068-.052734.02734-.023325.01083-.055625.04412-.078125.05078-.032492.0083-.069748-.0083-.1289062 0-.042483 0-.1046346-.02729-.1054688-.07813-.0009166-.0775.1356602-.03662.2089844-.05078.0275-.0083.044775-.03273.078125-.05273.015858-.0092.010399-.01539.025391-.02539.024975-.0175.073958-.05812.078125-.07813.00317-.01833-.0025-.03857 0-.05273.00317-.0175.030234-.0294.052734-.05273.035017-.035.060182-.08085.1035156-.103516.02915-.015.064792-.02857.078125-.05273.00317-.02667-.0009166-.02578 0-.05078.018333-.01667.037751-.02401.052734-.02734.045008-.01.078368.0025.1308594 0 .0225 0 .053958.01083.078125 0 .019983-.01333.030781-.04078.050781-.05078.021675-.01167.051433-.02568.078125-.02734zm.4687504.496093h-.103516c-.03667 0-.08185-.01917-.103516 0 .03085.05.08709.06563.15625.07813.02498-.01833.03914-.04621.05078-.07813zm-5.7031254-.46875h.078125c.020854 0 .044402-.0083.052734 0-.013337.055-.1383098.04539-.1816406.02539.00229-.02083.024088-.02206.050782-.02539zm-.1816406.103516c-.036402.02648-.073083.06007-.1308594.07813-.031671.01-.07229.0096-.078125-.02539-.00669-.04333.049782-.02318.078125-.02734.036667-.0083.088363-.02372.1308594-.0254zm5.4160156 0c-.0275.0092-.040842.06979 0 .07813.019158-.01167.032385-.04229.027344-.07813-.010817-.01167-.019044-.0083-.027344 0zm-.050781.130859c.0009166.04667.00917.08841 0 .128907.026675.05167.090187.0096.1035156-.02539.015858-.08667-.012734-.114349-.052734-.103516-.013333.0083-.036665-.01083-.050782-.000001zm-6.7714844 2.082032c.020854.01083.051459.02068.078125.02734.021679.0083.031912-.0067.052734 0 .044183.015.093913.03495.1289062.05078.053332.02333.1104167.104192.15625.130859.00229.02667-.00834.05813 0 .07813.021679.02917.043122.05813.078125.07813.042488.02333.065474.05963.1054688.07813.014163.0083.029084-.0083.050781 0 .054995.01667.083362.09212.1308594.07813.030846-.0092.020395-.04813.025391-.07813.020854-.0225.045602-.05273.078125-.05273.051658 0 .058957.08036.078125.130859.010817.02833.045264.04813.052734.07813.012512.05167.010817.203542 0 .234375-.013337.03833-.07185.03621-.1035156.07813-.014987.02-.015702.06396-.027344.07813-.019983.02417-.035762.0294-.050781.05273-.00834.0125-.019873.03328-.027344.05078-.025025.05333-.071626.09208-.050781.15625.00834.02583.050781.04729.050781.07813 0 .03667-.072291.0653-.078125.105468-.00413.02917.018223.0646.027344.103516.00665.02917.060626.05896.078125.07813.02915.0325.051459.08961.078125.130859.052493.08083.077252.180599.1289062.259766.0275.04083.087135.06052.1054688.103516.00917.02167-.00834.05813 0 .07813.029975.0675.1668808.150343.234375.183593.031671.01583.074356.0087.1035156.02539.044183.025.133755.09203.15625.130859.019983.035.015399.125891.025391.181641.012513.07333-.00321.129734 0 .208984.00229.04333.027344.06052.027344.103516 0 .015.0009166.06229 0 .07813-.0009167.05167.00412.10375 0 .15625-.00229.02833-.00183.05396 0 .07813.00229.02583.023741.0294.025391.05273.00183.02417-.027912.05896-.025391.07813.00582.0525.04078.08049.050781.128907.00834.03833.03234.13776.027344.183593-.8994289.175871-1.7837594-2.849611-1.7714844-3.777391zm1.4843748.3125c.040012-.01833.032496.0469 0 .05273-.030846.0083-.029975-.03773 0-.05273z"/><path d="m14 3-2 2 3 3-3 3 2 2 3-3 2-2z"/><path d="m6.5 3c-.831 0-1.5.669-1.5 1.5s.669 1.5 1.5 1.5 1.5-.669 1.5-1.5-.669-1.5-1.5-1.5z"/><path d="m3 8c-.554 0-1 .446-1 1s.446 1 1 1 1-.446 1-1-.446-1-1-1z"/></g></svg>