<svg height="64" viewBox="0 0 64 64" width="64" xmlns="http://www.w3.org/2000/svg" xmlns:xlink="http://www.w3.org/1999/xlink"><linearGradient id="a" gradientTransform="matrix(1 0 0 -1 0 64)" gradientUnits="userSpaceOnUse" x2="0" y1="3" y2="61"><stop offset="0" stop-color="#8e44ad"/><stop offset="1" stop-color="#9b59b6"/></linearGradient><linearGradient id="b" gradientTransform="matrix(1 0 0 -1 0 64)" gradientUnits="userSpaceOnUse" x2="0" y1="61" y2="47"><stop offset="0" stop-color="#e8d9eb"/><stop offset="1" stop-color="#d3bdd7"/></linearGradient><linearGradient id="c" gradientUnits="userSpaceOnUse" x1="40" x2="54" y1="17" y2="31"><stop offset="0" stop-color="#383e51"/><stop offset="1" stop-color="#655c6f" stop-opacity="0"/></linearGradient><path d="m10 61v-58h30l14 14v44h-14z" fill="url(#a)"/><g transform="scale(1 -1)"><path d="m10-4h30v1h-30z" fill="#fff" fill-opacity=".412"/><path d="m10-61h44v1h-44z" fill="#2e3132" fill-opacity=".294"/></g><g fill-rule="evenodd"><path d="m54 17-14-14v14z" fill="url(#b)"/><path d="m40 17 14 14v-14z" fill="url(#c)" opacity=".2"/></g><path d="m26.5 21.9c-.831 0-1.5.669-1.5 1.5s.669 1.5 1.5 1.5 1.5-.669 1.5-1.5-.669-1.5-1.5-1.5m8.5.1-3 3 5 5-5 5 3 3 8-8zm-11.5 8c-1.385 0-2.5 1.115-2.5 2.5s1.115 2.5 2.5 2.5 2.5-1.115 2.5-2.5-1.115-2.5-2.5-2.5m5.5 8c-1.662 0-3 1.338-3 3s1.338 3 3 3 3-1.338 3-3-1.338-3-3-3" fill="#e8d9eb"/></svg>