<svg enable-background="new 0 0 48 48" height="48" viewBox="0 0 48 48" width="48" xmlns="http://www.w3.org/2000/svg"><path d="m36.258 28.837s-.11-.837-1.257-.837c-.216 0-2.392 0-3.719 0 .798 2.671 1.497 5.135 1.497 5.279 0 2.387-3.401 3.393-8.917 3.393-5.515 0-8.651-.94-8.651-3.326 0-.167.998-2.692 1.791-5.346-1.591 0-3.863 0-4.063 0-.806 0-.937.749-.937.749l-3.843 12.237.656 1.014h30.652l.376-1.014z" fill="#f57c00"/><path d="m24.001 6c-1.029 0-1.864.179-1.864.398-.492 1.483-8.122 26.143-8.122 26.774 0 2.388 4.471 3.827 9.985 3.827s9.986-1.439 9.986-3.827c0-.549-7.614-25.268-8.122-26.774.001-.219-.833-.398-1.863-.398z" fill="#e0e0e0"/><g fill="#ff9800"><path d="m33.196 30.447c-1.164 1.785-4.855 3.553-9.15 3.553-4.34 0-8.156-1.696-9.281-3.51-.499 1.483-.892 2.647-.892 3.28 0 2.386 4.533 4.229 10.128 4.229s10.131-1.844 10.131-4.229c0-.548-.419-1.815-.936-3.323z"/><path d="m31.387 24.314-2.074-6.794s-1.857 1.479-5.311 1.479c-3.453 0-5.316-1.479-5.316-1.479l-2.081 6.806s2.068 2.674 7.397 2.674c5.373 0 7.385-2.686 7.385-2.686z"/><path d="m27.241 10.809-1.376-4.41s-.083-.398-1.864-.398c-1.844 0-1.864.398-1.864.398l-1.376 4.407s.885 1.194 3.239 1.194c2.355 0 3.241-1.191 3.241-1.191z"/></g></svg>