<svg height="48pt" viewBox="0 0 48 48" width="48pt" xmlns="http://www.w3.org/2000/svg" xmlns:xlink="http://www.w3.org/1999/xlink"><linearGradient id="a"><stop offset="0" stop-color="#ff416c"/><stop offset=".84347826087" stop-color="#ff4b2b"/></linearGradient><linearGradient id="b" x1="0" x2=".907488" xlink:href="#a" y1=".5" y2=".920078"/><linearGradient id="c" gradientTransform="matrix(46 0 0 47 1 .5)" gradientUnits="userSpaceOnUse" x1="0" x2=".907488" xlink:href="#a" y1=".5" y2=".920078"/><path d="m12.939 32.15h16.822c1.236 0 2.239.896 2.239 2 0 1.104-1.003 2-2.239 2h-16.822c-1.236 0-2.239-.896-2.239-2 0-1.104 1.003-2 2.239-2z" fill="url(#b)"/><path d="m15.93 22.22h9.84c1.231 0 2.23.896 2.23 2 0 1.104-.999 2-2.23 2h-9.84c-1.231 0-2.23-.896-2.23-2 0-1.104.999-2 2.23-2z" fill="url(#b)"/><path d="m16.93 24.51-.256.973c-.14.534-.687.852-1.22.71l-.005-.001c-1.6-.426-2.666-1.637-2.379-2.702l4.864-20.074c.389-1.61 2.05-2.916 3.706-2.916h4.73c1.656 0 3.337 1.301 3.752 2.904l8.537 32.988c.139.534.699.968 1.251.968h4.09c1.656 0 3 1.344 3 3v4.14c0 1.656-1.344 3-3 3h-40c-1.656 0-3-1.344-3-3v-4.14c0-1.656 1.344-3 3-3h4.08c.552 0 1.111-.434 1.247-.969l.733-2.881c.276-1.071 1.802-1.607 3.406-1.196l.964.246-.49 1.93-1.503 5.901c-.136.535-.695.969-1.247.969h-5.19c-.552 0-1 .448-1 1v.14c0 .552.448 1 1 1h36c.552 0 1-.448 1-1v-.14c0-.552-.448-1-1-1h-5.18c-.552 0-1.112-.434-1.251-.968l-9.048-34.924c-.139-.534-.699-.968-1.251-.968h-2.55c-.552 0-1.104.436-1.233.973z" fill="url(#c)"/></svg>